<?xml version="1.0" encoding="UTF-8" standalone="no"?>
<!-- Created with Inkscape (http://www.inkscape.org/) -->

<svg
   width="241.3829mm"
   height="45.471321mm"
   viewBox="0 0 241.3829 45.471321"
   version="1.1"
   id="svg1"
   sodipodi:docname="logo.svg"
   inkscape:version="1.3.2 (091e20ef0f, 2023-11-25, custom)"
   xmlns:inkscape="http://www.inkscape.org/namespaces/inkscape"
   xmlns:sodipodi="http://sodipodi.sourceforge.net/DTD/sodipodi-0.dtd"
   xmlns="http://www.w3.org/2000/svg"
   xmlns:svg="http://www.w3.org/2000/svg">
  <sodipodi:namedview
     id="namedview1"
     pagecolor="#ffffff"
     bordercolor="#000000"
     borderopacity="0.25"
     inkscape:showpageshadow="2"
     inkscape:pageopacity="0.0"
     inkscape:pagecheckerboard="0"
     inkscape:deskcolor="#d1d1d1"
     inkscape:document-units="mm"
     inkscape:zoom="2.8284271"
     inkscape:cx="161.5739"
     inkscape:cy="94.75231"
     inkscape:window-width="2409"
     inkscape:window-height="1224"
     inkscape:window-x="0"
     inkscape:window-y="0"
     inkscape:window-maximized="0"
     inkscape:current-layer="g1" />
  <defs
     id="defs1">
    <rect
       x="91.271851"
       y="310.31335"
       width="578.24835"
       height="348.90869"
       id="rect1" />
  </defs>
  <g
     inkscape:label="Logo"
     inkscape:groupmode="layer"
     id="layer1"
     transform="translate(-242.41028,-504.81955)">
    <path
       style="font-size:42.3333px;font-family:'Glacial Indifference';-inkscape-font-specification:'Glacial Indifference';fill:#000000;stroke:#000000;stroke-linecap:round;stroke-linejoin:round;fill-opacity:1;stroke-opacity:1"
       d="m 483.29318,529.42855 c 0,-2.53999 -1.016,-4.74133 -2.96333,-6.64632 -1.905,-1.82034 -4.19099,-2.75167 -6.77333,-2.75167 -2.70933,0 -4.99533,0.97367 -6.90032,2.87867 -1.905,1.90499 -2.83633,4.19099 -2.83633,6.85799 0,2.70933 0.93133,4.99533 2.83633,6.858 0.889,0.889 1.90499,1.56633 3.09033,2.07433 1.18533,0.508 2.58233,0.762 4.23333,0.762 1.651,0 3.25966,-0.508 4.86833,-1.524 1.60866,-1.016 2.79399,-2.45533 3.59833,-4.23333 h -3.38667 c -0.67733,0.889 -1.48166,1.56633 -2.45533,2.07433 -0.97366,0.508 -1.98966,0.762 -3.048,0.762 -1.60866,0 -3.04799,-0.55033 -4.31799,-1.56633 -1.27,-1.05834 -2.07433,-2.37067 -2.32833,-3.937 h 16.38298 z m -3.13266,-0.93133 h -13.20799 c 0.16933,-0.80433 0.46567,-1.524 0.889,-2.20133 1.35466,-2.20133 3.25966,-3.302 5.71499,-3.302 1.56634,0 2.96334,0.508 4.191,1.524 1.27,1.05833 2.032,2.37067 2.413,3.97933 z"
       id="path25" />
    <path
       style="font-size:42.3333px;font-family:'Glacial Indifference';-inkscape-font-specification:'Glacial Indifference';fill:#000000;stroke:#000000;stroke-linecap:round;stroke-linejoin:round;fill-opacity:1;stroke-opacity:1"
       d="m 450.73886,536.54055 c -0.71967,-0.508 -1.27,-1.35467 -1.56634,-2.58233 h -3.13266 c 0.635,3.85233 3.09033,5.75733 7.40833,5.75733 1.016,0 1.94733,-0.0847 2.83633,-0.33867 0.889,-0.254 1.651,-0.59267 2.37066,-1.05833 1.43934,-0.97367 2.159,-2.45533 2.159,-4.445 0,-2.032 -0.93133,-3.47133 -2.87866,-4.40266 -0.80433,-0.381 -1.69333,-0.67733 -2.667,-0.889 -0.93133,-0.21167 -1.82033,-0.46567 -2.62466,-0.71967 -0.84667,-0.254 -1.524,-0.59266 -2.07434,-0.97366 -0.55033,-0.381 -0.84666,-0.97367 -0.84666,-1.82034 0,-0.84666 0.33866,-1.48166 1.016,-1.86266 0.67733,-0.42333 1.48166,-0.59267 2.37066,-0.59267 0.93133,0 1.73567,0.16934 2.37067,0.508 0.635,0.33867 1.143,1.016 1.43933,2.07433 h 3.175 c -0.381,-1.90499 -1.18534,-3.21733 -2.37067,-3.93699 -1.22766,-0.762 -2.70933,-1.10067 -4.52966,-1.10067 -1.778,0 -3.34433,0.46567 -4.65666,1.397 -1.27,0.97367 -1.94734,2.37067 -1.94734,4.23333 0,0.889 0.254,1.69333 0.71967,2.37067 0.508,0.71966 1.22767,1.26999 2.159,1.69333 0.84666,0.381 1.73566,0.67733 2.667,0.93133 0.93133,0.21167 1.82033,0.46567 2.66699,0.71967 1.905,0.635 2.87867,1.56633 2.87867,2.75166 0,2.032 -1.35467,3.048 -4.064,3.048 -1.143,0 -2.11666,-0.254 -2.87866,-0.762 z"
       id="path24" />
    <path
       style="font-size:42.3333px;font-family:'Glacial Indifference';-inkscape-font-specification:'Glacial Indifference';fill:#000000;stroke:#000000;stroke-linecap:round;stroke-linejoin:round;fill-opacity:1;stroke-opacity:1"
       d="m 441.55252,539.16521 v -18.62665 h -2.96333 v 18.62665 z"
       id="path23" />
    <path
       style="font-size:42.3333px;font-family:'Glacial Indifference';-inkscape-font-specification:'Glacial Indifference';fill:#000000;stroke:#000000;stroke-linecap:round;stroke-linejoin:round;fill-opacity:1;stroke-opacity:1"
       d="m 441.38319,514.1039 c -0.381,-0.33867 -0.84667,-0.55033 -1.35467,-0.55033 -0.508,0 -0.97366,0.21166 -1.31233,0.55033 -0.381,0.381 -0.55033,0.84667 -0.55033,1.35467 0,0.50799 0.16933,0.97366 0.55033,1.31233 0.33867,0.381 0.80433,0.55033 1.31233,0.55033 0.508,0 0.97367,-0.16933 1.35467,-0.55033 0.33866,-0.33867 0.55033,-0.80434 0.55033,-1.31233 0,-0.508 -0.21167,-0.97367 -0.55033,-1.35467 z"
       id="path22" />
    <path
       style="font-size:42.3333px;font-family:'Glacial Indifference';-inkscape-font-specification:'Glacial Indifference';fill:#000000;stroke:#000000;stroke-linecap:round;stroke-linejoin:round;fill-opacity:1;stroke-opacity:1"
       d="m 429.69918,539.08055 h 2.96333 v -11.64166 c 0,-2.07433 -0.55033,-3.81 -1.56633,-5.16466 -0.508,-0.67734 -1.18533,-1.18534 -1.94733,-1.60867 -0.80433,-0.42333 -1.86267,-0.635 -3.175,-0.635 -1.27,0 -2.413,0.381 -3.38666,1.05833 -0.889,0.67734 -1.60867,1.48167 -2.20133,2.49767 -0.21167,-0.46567 -0.46567,-0.889 -0.762,-1.31233 -0.508,-0.67734 -1.18534,-1.18534 -1.94734,-1.60867 -0.80433,-0.42333 -1.86266,-0.635 -3.17499,-0.635 -1.27,0 -2.413,0.381 -3.38667,1.05833 -0.84666,0.635 -1.524,1.397 -2.11666,2.37067 v -3.00567 h -2.96333 v 18.62666 h 2.96333 v -9.525 c 0.16933,-1.48166 0.55033,-2.79399 1.143,-3.85233 0.46566,-0.762 1.05833,-1.43933 1.82033,-1.94733 0.762,-0.508 1.60866,-0.762 2.45533,-0.762 0.889,0 1.524,0.16934 1.94733,0.42334 1.22767,0.762 1.82033,2.11666 1.82033,4.02166 v 11.64166 h 2.96333 v -11.64166 c 0,-0.21167 0,-0.46567 0,-0.67733 0.127,-0.381 0.29634,-0.71967 0.46567,-1.05834 0.46567,-0.762 1.05833,-1.43933 1.82033,-1.94733 0.762,-0.508 1.60867,-0.762 2.45533,-0.762 0.889,0 1.524,0.16934 1.94734,0.42334 1.22766,0.762 1.82033,2.11666 1.82033,4.02166 z"
       id="path21" />
    <path
       style="font-size:42.3333px;font-family:'Glacial Indifference';-inkscape-font-specification:'Glacial Indifference';fill:#000000;stroke:#000000;stroke-linecap:round;stroke-linejoin:round;fill-opacity:1;stroke-opacity:1"
       d="m 401.20886,529.42855 c 0,-2.53999 -1.016,-4.74133 -2.96333,-6.64632 -1.905,-1.82034 -4.19099,-2.75167 -6.77333,-2.75167 -2.70933,0 -4.99533,0.97367 -6.90032,2.87867 -1.905,1.90499 -2.83634,4.19099 -2.83634,6.85799 0,2.70933 0.93134,4.99533 2.83634,6.858 0.889,0.889 1.90499,1.56633 3.09033,2.07433 1.18533,0.508 2.58233,0.762 4.23333,0.762 1.651,0 3.25966,-0.508 4.86833,-1.524 1.60866,-1.016 2.79399,-2.45533 3.59833,-4.23333 h -3.38667 c -0.67733,0.889 -1.48166,1.56633 -2.45533,2.07433 -0.97366,0.508 -1.98966,0.762 -3.048,0.762 -1.60866,0 -3.04799,-0.55033 -4.31799,-1.56633 -1.27,-1.05834 -2.07433,-2.37067 -2.32833,-3.937 h 16.38298 z m -3.13266,-0.93133 h -13.20799 c 0.16933,-0.80433 0.46567,-1.524 0.889,-2.20133 1.35466,-2.20133 3.25966,-3.302 5.71499,-3.302 1.56634,0 2.96334,0.508 4.191,1.524 1.27,1.05833 2.032,2.37067 2.413,3.97933 z"
       id="path20" />
    <path
       style="font-size:42.3333px;font-family:'Glacial Indifference';-inkscape-font-specification:'Glacial Indifference';fill:#000000;stroke:#000000;stroke-linecap:round;stroke-linejoin:round;fill-opacity:1;stroke-opacity:1"
       d="M 362.93953,524.94122 V 513.2149 h 6.68866 c 1.73567,0 3.13267,0.55033 4.191,1.651 1.016,1.10066 1.56633,2.45533 1.56633,4.14866 0,1.69333 -0.55033,3.09033 -1.651,4.23333 -1.10066,1.143 -2.45533,1.69333 -4.10633,1.69333 z m 15.40932,-5.88432 c 0,-2.45534 -0.93133,-4.572 -2.70933,-6.223 -1.73566,-1.60866 -3.89466,-2.45533 -6.43466,-2.45533 h -9.22866 v 28.78664 h 2.96333 v -11.38765 h 3.429 l 8.46666,11.38765 h 3.97933 l -8.88999,-11.38765 c 2.24366,-0.127 4.14866,-0.93134 5.71499,-2.413 1.778,-1.651 2.70933,-3.76767 2.70933,-6.30766 z"
       id="path19" />
    <path
       style="font-size:42.3333px;font-family:'Glacial Indifference';-inkscape-font-specification:'Glacial Indifference';fill:#000000;stroke:#000000;stroke-linecap:round;stroke-linejoin:round;fill-opacity:1;stroke-opacity:1"
       d="m 349.51984,548.69021 h 2.32833 v -40.21664 h -2.32833 z"
       id="path18" />
    <path
       style="font-size:42.3333px;font-family:'Glacial Indifference';-inkscape-font-specification:'Glacial Indifference';fill:#000000;stroke:#000000;stroke-linecap:round;stroke-linejoin:round;fill-opacity:1;stroke-opacity:1"
       d="m 339.02115,539.16521 h 2.96333 v -11.64165 c 0,-2.159 -0.59267,-3.89467 -1.69333,-5.207 -0.59267,-0.67733 -1.27,-1.18533 -2.07434,-1.56633 -0.84666,-0.381 -1.905,-0.59267 -3.21733,-0.59267 -1.35466,0 -2.49766,0.381 -3.51366,1.05833 -0.97367,0.635 -1.778,1.48167 -2.37067,2.54 v -3.21733 h -2.96333 v 18.62665 h 2.96333 v -7.78932 c 0,-2.37067 0.42334,-4.23333 1.31234,-5.63033 0.508,-0.762 1.14299,-1.397 1.94733,-1.86267 0.762,-0.508 1.82033,-0.71966 3.09033,-0.71966 1.27,0 2.159,0.42333 2.70933,1.27 0.55033,0.84666 0.84667,1.90499 0.84667,3.13266 z"
       id="path17" />
    <path
       style="font-size:42.3333px;font-family:'Glacial Indifference';-inkscape-font-specification:'Glacial Indifference';fill:#000000;stroke:#000000;stroke-linecap:round;stroke-linejoin:round;fill-opacity:1;stroke-opacity:1"
       d="m 321.28349,529.42855 c 0,-2.53999 -1.016,-4.74133 -2.96333,-6.64632 -1.905,-1.82034 -4.191,-2.75167 -6.77333,-2.75167 -2.70933,0 -4.99533,0.97367 -6.90033,2.87867 -1.905,1.90499 -2.83633,4.19099 -2.83633,6.85799 0,2.70933 0.93133,4.99533 2.83633,6.858 0.889,0.889 1.905,1.56633 3.09033,2.07433 1.18533,0.508 2.58233,0.762 4.23333,0.762 1.651,0 3.25966,-0.508 4.86833,-1.524 1.60867,-1.016 2.794,-2.45533 3.59833,-4.23333 h -3.38666 c -0.67734,0.889 -1.48167,1.56633 -2.45533,2.07433 -0.97367,0.508 -1.98967,0.762 -3.048,0.762 -1.60867,0 -3.048,-0.55033 -4.318,-1.56633 -1.27,-1.05834 -2.07433,-2.37067 -2.32833,-3.937 h 16.38299 z m -3.13267,-0.93133 h -13.20799 c 0.16934,-0.80433 0.46567,-1.524 0.889,-2.20133 1.35467,-2.20133 3.25967,-3.302 5.715,-3.302 1.56633,0 2.96333,0.508 4.19099,1.524 1.27,1.05833 2.032,2.37067 2.413,3.97933 z"
       id="path16" />
    <path
       style="font-size:42.3333px;font-family:'Glacial Indifference';-inkscape-font-specification:'Glacial Indifference';fill:#000000;stroke:#000000;stroke-linecap:round;stroke-linejoin:round;fill-opacity:1;stroke-opacity:1"
       d="m 281.91353,549.74854 v -13.75832 c 0.127,0.254 0.33867,0.46566 0.508,0.635 1.778,1.98966 3.937,2.96333 6.51933,2.96333 2.54,0 4.699,-0.97367 6.47699,-2.96333 1.69334,-1.905 2.58234,-4.14867 2.58234,-6.731 0,-2.62466 -0.889,-4.86833 -2.58234,-6.77333 -1.77799,-1.98966 -3.93699,-2.96333 -6.47699,-2.96333 -2.58233,0 -4.74133,0.97367 -6.51933,2.96333 -0.16933,0.16934 -0.381,0.381 -0.508,0.635 v -3.175 h -2.96333 v 29.20998 z m 13.12332,-19.85432 c 0,1.778 -0.63499,3.38667 -1.90499,4.74133 -1.27,1.35467 -2.83633,2.032 -4.65667,2.032 -1.86266,0 -3.42899,-0.67733 -4.69899,-2.032 -1.27,-1.35466 -1.86267,-2.96333 -1.86267,-4.74133 0,-1.82033 0.59267,-3.429 1.86267,-4.74133 1.27,-1.35466 2.83633,-2.032 4.69899,-2.032 1.82034,0 3.38667,0.67734 4.65667,2.032 1.27,1.31233 1.90499,2.921 1.90499,4.74133 z"
       id="path15" />
  </g>
  <g
     inkscape:groupmode="layer"
     id="layer2"
     inkscape:label="Icon"
     transform="translate(-1.1334043e-4,-0.10681)">
    <path
       d="M 31.173011,3.8743254 H 0.55347836 a 0.55347571,1.3836893 0 0 1 0,-2.7673786 H 31.173011 a 0.55347571,1.3836893 0 0 1 0,2.7673786 z"
       fill="#000000"
       id="path36"
       style="fill:#000000;fill-opacity:1;stroke-width:0.264584" />
    <path
       d="M 7.4724666,10.07498 A 1.3834289,0.55315469 0 0 1 6.0882355,9.5215044 V 3.3208496 a 1.3842317,0.55347571 0 0 1 2.7684633,0 V 9.5215044 A 1.3834289,0.55315469 0 0 1 7.4724666,10.07498 Z"
       fill="#000000"
       id="path39"
       style="fill:#000000;fill-opacity:1;stroke-width:0.264584" />
    <path
       d="M 25.738249,10.09444 A 1.3834267,0.55315469 0 0 1 24.35402,9.5409646 v -6.220115 a 1.3842297,0.55347577 0 0 1 2.768459,0 v 6.220115 a 1.3834405,0.55316023 0 0 1 -1.38423,0.5534754 z"
       fill="#000000"
       id="path40"
       style="fill:#000000;fill-opacity:1;stroke-width:0.264584" />
    <path
       style="font-size:42.3333px;font-family:'Glacial Indifference';-inkscape-font-specification:'Glacial Indifference';fill:#000000;stroke:#000000;stroke-linecap:round;stroke-linejoin:round;fill-opacity:1;stroke-opacity:1"
       d="m 270.90689,524.68722 c 0,3.302 -1.18533,6.096 -3.47133,8.382 -2.32833,2.32833 -5.12233,3.47133 -8.38199,3.47133 -3.25967,0 -6.05366,-1.143 -8.382,-3.47133 -2.28599,-2.286 -3.47133,-5.08 -3.47133,-8.382 0,-3.21733 1.18534,-6.01132 3.47133,-8.33966 2.32834,-2.28599 5.12233,-3.47133 8.382,-3.47133 3.25966,0 6.05366,1.18534 8.38199,3.47133 2.286,2.32834 3.47133,5.12233 3.47133,8.33966 z m 2.96333,0 c 0,-2.03199 -0.42333,-3.93699 -1.18533,-5.75732 -0.762,-1.778 -1.82033,-3.34433 -3.175,-4.699 -1.35466,-1.31233 -2.92099,-2.37067 -4.74133,-3.13266 -1.77799,-0.762 -3.72533,-1.143 -5.75732,-1.143 -2.032,0 -3.937,0.381 -5.715,1.143 -1.778,0.76199 -3.34433,1.82033 -4.699,3.13266 -1.35466,1.35467 -2.413,2.921 -3.17499,4.699 -0.762,1.82033 -1.18534,3.72533 -1.18534,5.75732 0,2.032 0.42334,3.97934 1.18534,5.75733 0.76199,1.82034 1.82033,3.38667 3.17499,4.74133 1.35467,1.35467 2.921,2.413 4.699,3.175 1.778,0.762 3.683,1.18533 5.715,1.18533 2.03199,0 3.97933,-0.42333 5.75732,-1.18533 1.82034,-0.762 3.38667,-1.82033 4.74133,-3.175 1.35467,-1.35466 2.413,-2.92099 3.175,-4.74133 0.762,-1.77799 1.18533,-3.72533 1.18533,-5.75733 z"
       id="text2"
       transform="translate(-242.41017,-504.71274)" />
    <path
       style="font-size:42.3333px;font-family:'Glacial Indifference';-inkscape-font-specification:'Glacial Indifference';fill:#000000;stroke:#000000;stroke-linecap:round;stroke-linejoin:round;fill-opacity:1;stroke-opacity:1"
       d="m 276.56002,505.86988 c -0.381,-0.33867 -0.84667,-0.55033 -1.35467,-0.55033 -0.508,0 -0.97366,0.21166 -1.31233,0.55033 -0.381,0.381 -0.55033,0.84667 -0.55033,1.35467 0,0.50799 0.16933,0.97366 0.55033,1.31233 0.33867,0.381 0.80433,0.55033 1.31233,0.55033 0.508,0 0.97367,-0.16933 1.35467,-0.55033 0.33866,-0.33867 0.55033,-0.80434 0.55033,-1.31233 0,-0.508 -0.21167,-0.97367 -0.55033,-1.35467 z"
       id="path22-7"
       transform="translate(-242.41017,-504.71274)" />
    <g
       id="g1"
       inkscape:label="Loco"
       inkscape:groupmode="layer">
      <path
         d="m 16.643395,11.908863 c -3.765067,0 -6.845577,0.427849 -6.845577,3.422788 v 8.129123 c 0,1.625825 1.369115,2.99494 2.99494,2.99494 l -1.283546,1.283546 v 0.427848 H 21.777578 V 27.73926 l -1.283546,-1.283546 c 1.625825,0 2.99494,-1.369115 2.99494,-2.99494 v -8.129123 c 0,-2.994939 -3.08051,-3.422788 -6.845577,-3.422788 z M 12.792758,24.74432 c -0.684558,0 -1.283546,-0.598988 -1.283546,-1.283546 0,-0.684558 0.598988,-1.283546 1.283546,-1.283546 0.684558,0 1.283546,0.598988 1.283546,1.283546 0,0.684558 -0.598988,1.283546 -1.283546,1.283546 z m 2.99494,-5.134183 h -4.278486 v -4.278486 h 4.278486 z m 4.706334,5.134183 c -0.684558,0 -1.283546,-0.598988 -1.283546,-1.283546 0,-0.684558 0.598988,-1.283546 1.283546,-1.283546 0.684558,0 1.283546,0.598988 1.283546,1.283546 0,0.684558 -0.598988,1.283546 -1.283546,1.283546 z m 1.283546,-5.134183 h -4.278486 v -4.278486 h 4.278486 z"
         id="path1"
         style="stroke-width:0.264583" />
    </g>
  </g>
</svg>
